<?xml version="1.0" encoding="UTF-8"?>
<svg width="1004px" height="1004px" viewBox="0 0 1004 1004" version="1.1" xmlns="http://www.w3.org/2000/svg" xmlns:xlink="http://www.w3.org/1999/xlink">
    <!-- Generator: Sketch 64 (93537) - https://sketch.com -->
    <title>test_icon/icon@1x</title>
    <desc>Created with Sketch.</desc>
    <g id="Page-1" stroke="none" stroke-width="1" fill="none" fill-rule="evenodd">
        <g id="UID-app-icon-light" transform="translate(100.000000, 100.000000)" fill-rule="nonzero">
            <path d="M400.54,85.6191513 C226.127063,85.7193082 84.7637866,227.08706 84.67,401.5 C84.67,575.68 226.36,717.38 400.54,717.38 C574.72,717.38 716.420849,575.68 716.420849,401.5 C716.61442,317.663964 683.396738,237.205639 624.11555,177.92445 C564.834361,118.643262 484.376036,85.4255798 400.54,85.6191513 Z M400.54,802.19 C179.59,802.19 0,622.45 0,401.5 C0,296.33 40.32,197.1 113.63,121.9 C225.928986,6.66958537 396.239403,-30.2588946 546.18,28.11 C599.42005,48.9685092 647.598594,80.9432167 687.5,121.9 C760.81,197.23 801.26,296.58 801.26,401.5 C801.26,622.45 621.52,802.19 400.56,802.19 L400.54,802.19 Z" id="Shape" fill="#EA1D25"></path>
            <path d="M308.27,329.42 C309.54,280.5 349.35,240.68 398.27,239.55 C439.805778,238.531433 476.89935,265.399176 488.881632,305.182128 C500.863915,344.96508 484.779148,387.84968 449.59,409.94 C440.62276,415.532756 436.123653,426.146651 438.34,436.48 L465.77,566.55 C466.559711,570.2864 465.621969,574.179678 463.217645,577.146757 C460.813321,580.113837 457.198943,581.840074 453.38,581.840074 L347.71,581.840074 C343.885812,581.853112 340.26162,580.132818 337.85398,577.161647 C335.446341,574.190476 334.514562,570.28843 335.32,566.55 L362.75,436.48 C364.945969,426.100931 360.460014,415.450275 351.5,409.77 C323.987769,392.410139 307.58303,361.904079 308.27,329.38 L308.27,329.42 Z" id="Path" fill="#75797D"></path>
        </g>
    </g>
</svg>